HIERARCHY
ROOT Hips
{
	OFFSET 0.000000 83.214638 0.000000
	CHANNELS 6 Xposition Yposition Zposition Xrotation Yrotation Zrotation
	JOINT Pelvis
	{
		OFFSET 0.000000 0.000000 0.000000
		CHANNELS 3 Xrotation Yrotation Zrotation
		JOINT LeftUpLeg
		{
			OFFSET 8.479700 -4.795502 -0.379100
			CHANNELS 3 Xrotation Yrotation Zrotation
			JOINT LeftLeg
			{
				OFFSET 0.024144 -32.555107 0.112900
				CHANNELS 3 Xrotation Yrotation Zrotation
				JOINT LeftFoot
				{
					OFFSET -0.024144 -32.638630 -3.012600
					CHANNELS 3 Xrotation Yrotation Zrotation
					JOINT LeftToeBase
					{
						OFFSET 0.970200 -13.225400 11.864200
						CHANNELS 3 Xrotation Yrotation Zrotation
						End Site
						{
							OFFSET 0.000000 12.319262 0.000000
						}
					}
					JOINT LFootTongue
					{
						OFFSET 1.142400 -1.059800 6.665200
						CHANNELS 3 Xrotation Yrotation Zrotation
						End Site
						{
							OFFSET 0.000000 12.319262 0.000000
						}
					}
				}
				JOINT LeftPantLeg
				{
					OFFSET 0.918482 -16.533964 -2.284700
					CHANNELS 3 Xrotation Yrotation Zrotation
					End Site
					{
						OFFSET 0.350399 24.744368 0.000000
					}
				}
			}
		}
		JOINT RightUpLeg
		{
			OFFSET -8.479700 -4.795502 -0.379100
			CHANNELS 3 Xrotation Yrotation Zrotation
			JOINT RightLeg
			{
				OFFSET -0.023144 -32.555092 0.112900
				CHANNELS 3 Xrotation Yrotation Zrotation
				JOINT RightFoot
				{
					OFFSET 0.023144 -32.638641 -3.012700
					CHANNELS 3 Xrotation Yrotation Zrotation
					JOINT RightToeBase
					{
						OFFSET -0.970200 -13.225400 11.864200
						CHANNELS 3 Xrotation Yrotation Zrotation
						End Site
						{
							OFFSET 0.000000 12.319244 0.000000
						}
					}
					JOINT RFootTongue
					{
						OFFSET -1.142200 -1.059800 6.665200
						CHANNELS 3 Xrotation Yrotation Zrotation
						End Site
						{
							OFFSET 0.000000 12.319243 0.000000
						}
					}
				}
				JOINT RightPantLeg
				{
					OFFSET -0.919482 -16.533978 -2.284800
					CHANNELS 3 Xrotation Yrotation Zrotation
					End Site
					{
						OFFSET -0.350400 24.744419 0.000000
					}
				}
			}
		}
	}
	JOINT Spine
	{
		OFFSET 0.000000 7.722000 1.166200
		CHANNELS 3 Xrotation Yrotation Zrotation
		JOINT Spine1
		{
			OFFSET 0.000000 12.024101 0.248800
			CHANNELS 3 Xrotation Yrotation Zrotation
			JOINT Spine2
			{
				OFFSET 0.000000 11.502998 -0.491200
				CHANNELS 3 Xrotation Yrotation Zrotation
				JOINT Neck
				{
					OFFSET 0.000000 18.430702 -3.123100
					CHANNELS 3 Xrotation Yrotation Zrotation
					JOINT Head
					{
						OFFSET 0.000000 9.051102 1.034000
						CHANNELS 3 Xrotation Yrotation Zrotation
						JOINT HairB
						{
							OFFSET 0.208400 24.786102 24.822300
							CHANNELS 3 Xrotation Yrotation Zrotation
							End Site
							{
								OFFSET 0.000000 32.263779 0.000000
							}
						}
						JOINT HairA
						{
							OFFSET -7.081100 24.428299 23.196600
							CHANNELS 3 Xrotation Yrotation Zrotation
							End Site
							{
								OFFSET 0.000000 32.263779 0.000000
							}
						}
						JOINT Hat
						{
							OFFSET 16.728800 15.048294 -15.439601
							CHANNELS 3 Xrotation Yrotation Zrotation
							End Site
							{
								OFFSET 0.000000 32.263779 0.000000
							}
						}
					}
				}
				JOINT LeftShoulder
				{
					OFFSET 6.197800 13.665199 -4.064700
					CHANNELS 3 Xrotation Yrotation Zrotation
					JOINT LeftArm
					{
						OFFSET 7.778100 -0.187103 -1.709300
						CHANNELS 3 Xrotation Yrotation Zrotation
						JOINT LeftForeArm
						{
							OFFSET 22.049376 0.000000 0.000000
							CHANNELS 3 Xrotation Yrotation Zrotation
							JOINT LeftHand
							{
								OFFSET 23.009392 0.000000 0.000000
								CHANNELS 3 Xrotation Yrotation Zrotation
								JOINT LeftHandThumb1
								{
									OFFSET 3.507191 -2.063065 3.133727
									CHANNELS 3 Xrotation Yrotation Zrotation
									JOINT LeftHandThumb2
									{
										OFFSET 3.101337 -1.790558 1.790558
										CHANNELS 3 Xrotation Yrotation Zrotation
										JOINT LeftHandThumb3
										{
											OFFSET 3.058640 -1.765907 1.765906
											CHANNELS 3 Xrotation Yrotation Zrotation
											End Site
											{
												OFFSET -0.415260 3.926476 -0.049563
											}
										}
									}
								}
								JOINT LeftHandIndex1
								{
									OFFSET 11.334419 -0.901459 3.706815
									CHANNELS 3 Xrotation Yrotation Zrotation
									JOINT LeftHandIndex2
									{
										OFFSET 3.283112 0.000000 0.000000
										CHANNELS 3 Xrotation Yrotation Zrotation
										JOINT LeftHandIndex3
										{
											OFFSET 3.323853 0.000000 0.000000
											CHANNELS 3 Xrotation Yrotation Zrotation
											End Site
											{
												OFFSET -1.135597 3.097809 0.402452
											}
										}
									}
								}
								JOINT LeftHandMiddle1
								{
									OFFSET 11.335861 0.000000 0.000000
									CHANNELS 3 Xrotation Yrotation Zrotation
									JOINT LeftHandMiddle2
									{
										OFFSET 3.410492 0.000000 0.000000
										CHANNELS 3 Xrotation Yrotation Zrotation
										JOINT LeftHandMiddle3
										{
											OFFSET 3.312172 0.000000 0.000000
											CHANNELS 3 Xrotation Yrotation Zrotation
											End Site
											{
												OFFSET -1.150200 3.080154 0.400270
											}
										}
									}
								}
								JOINT LeftHandRing1
								{
									OFFSET 11.514786 -0.013176 -3.003090
									CHANNELS 3 Xrotation Yrotation Zrotation
									JOINT LeftHandRing2
									{
										OFFSET 3.053307 0.000000 0.000000
										CHANNELS 3 Xrotation Yrotation Zrotation
										JOINT LeftHandRing3
										{
											OFFSET 3.295807 0.000000 0.000000
											CHANNELS 3 Xrotation Yrotation Zrotation
											End Site
											{
												OFFSET -1.281006 3.013344 0.375733
											}
										}
									}
								}
								JOINT LeftHandPinky1
								{
									OFFSET 10.518692 -0.960396 -5.730441
									CHANNELS 3 Xrotation Yrotation Zrotation
									JOINT LeftHandPinky2
									{
										OFFSET 2.861649 0.000000 0.000000
										CHANNELS 3 Xrotation Yrotation Zrotation
										JOINT LeftHandPinky3
										{
											OFFSET 2.863380 0.000000 0.000000
											CHANNELS 3 Xrotation Yrotation Zrotation
											End Site
											{
												OFFSET -0.843597 2.711159 0.369971
											}
										}
									}
								}
							}
							JOINT LSleeve
							{
								OFFSET 6.676277 -0.344902 -1.011730
								CHANNELS 3 Xrotation Yrotation Zrotation
								End Site
								{
									OFFSET 0.000000 14.885353 0.000000
								}
							}
						}
					}
				}
				JOINT RightShoulder
				{
					OFFSET -6.197800 13.665199 -4.064700
					CHANNELS 3 Xrotation Yrotation Zrotation
					JOINT RightArm
					{
						OFFSET -7.778100 -0.187103 -1.709300
						CHANNELS 3 Xrotation Yrotation Zrotation
						JOINT RightForeArm
						{
							OFFSET -22.049376 0.000000 0.000000
							CHANNELS 3 Xrotation Yrotation Zrotation
							JOINT RightHand
							{
								OFFSET -23.009392 0.000000 0.000000
								CHANNELS 3 Xrotation Yrotation Zrotation
								JOINT RightHandThumb1
								{
									OFFSET -3.507191 -2.063065 3.133727
									CHANNELS 3 Xrotation Yrotation Zrotation
									JOINT RightHandThumb2
									{
										OFFSET -3.101337 -1.790558 1.790558
										CHANNELS 3 Xrotation Yrotation Zrotation
										JOINT RightHandThumb3
										{
											OFFSET -3.058640 -1.765907 1.765906
											CHANNELS 3 Xrotation Yrotation Zrotation
											End Site
											{
												OFFSET 0.415260 3.926476 -0.049563
											}
										}
									}
								}
								JOINT RightHandIndex1
								{
									OFFSET -11.334419 -0.901459 3.706815
									CHANNELS 3 Xrotation Yrotation Zrotation
									JOINT RightHandIndex2
									{
										OFFSET -3.283112 0.000000 0.000000
										CHANNELS 3 Xrotation Yrotation Zrotation
										JOINT RightHandIndex3
										{
											OFFSET -3.323853 0.000000 0.000000
											CHANNELS 3 Xrotation Yrotation Zrotation
											End Site
											{
												OFFSET 1.135597 3.097809 0.402452
											}
										}
									}
								}
								JOINT RightHandMiddle1
								{
									OFFSET -11.335861 0.000000 0.000000
									CHANNELS 3 Xrotation Yrotation Zrotation
									JOINT RightHandMiddle2
									{
										OFFSET -3.410492 0.000000 0.000000
										CHANNELS 3 Xrotation Yrotation Zrotation
										JOINT RightHandMiddle3
										{
											OFFSET -3.312172 0.000000 0.000000
											CHANNELS 3 Xrotation Yrotation Zrotation
											End Site
											{
												OFFSET 1.150200 3.080154 0.400270
											}
										}
									}
								}
								JOINT RightHandRing1
								{
									OFFSET -11.514786 -0.013176 -3.003090
									CHANNELS 3 Xrotation Yrotation Zrotation
									JOINT RightHandRing2
									{
										OFFSET -3.053307 0.000000 0.000000
										CHANNELS 3 Xrotation Yrotation Zrotation
										JOINT RightHandRing3
										{
											OFFSET -3.295807 0.000000 0.000000
											CHANNELS 3 Xrotation Yrotation Zrotation
											End Site
											{
												OFFSET 1.281006 3.013344 0.375733
											}
										}
									}
								}
								JOINT RightHandPinky1
								{
									OFFSET -10.518692 -0.960396 -5.730441
									CHANNELS 3 Xrotation Yrotation Zrotation
									JOINT RightHandPinky2
									{
										OFFSET -2.861649 0.000000 0.000000
										CHANNELS 3 Xrotation Yrotation Zrotation
										JOINT RightHandPinky3
										{
											OFFSET -2.863380 0.000000 0.000000
											CHANNELS 3 Xrotation Yrotation Zrotation
											End Site
											{
												OFFSET 0.843597 2.711159 0.369971
											}
										}
									}
								}
							}
							JOINT RSleeve
							{
								OFFSET -6.676277 -0.344902 -1.011730
								CHANNELS 3 Xrotation Yrotation Zrotation
								End Site
								{
									OFFSET 0.000000 14.885353 0.000000
								}
							}
						}
					}
				}
				JOINT Backpack
				{
					OFFSET 0.000000 -2.471497 36.677502
					CHANNELS 3 Xrotation Yrotation Zrotation
					End Site
					{
						OFFSET 0.000000 20.427315 0.000000
					}
				}
				JOINT Hood
				{
					OFFSET 0.000000 18.754097 -10.431000
					CHANNELS 3 Xrotation Yrotation Zrotation
					JOINT Hood1
					{
						OFFSET 0.000000 -5.011002 -7.685901
						CHANNELS 3 Xrotation Yrotation Zrotation
						End Site
						{
							OFFSET 0.000000 9.175140 0.000000
						}
					}
				}
				JOINT LHoodieString
				{
					OFFSET 5.250500 16.397697 3.089900
					CHANNELS 3 Xrotation Yrotation Zrotation
					JOINT LHoodieString1
					{
						OFFSET 0.257700 -6.364304 3.694600
						CHANNELS 3 Xrotation Yrotation Zrotation
						JOINT LHoodieString2
						{
							OFFSET 0.000000 -9.643799 2.679100
							CHANNELS 3 Xrotation Yrotation Zrotation
							End Site
							{
								OFFSET 0.000000 10.009018 0.000000
							}
						}
					}
				}
				JOINT RHoodieString
				{
					OFFSET -5.250500 16.397697 3.089900
					CHANNELS 3 Xrotation Yrotation Zrotation
					JOINT RHoodieString1
					{
						OFFSET -0.257700 -6.364304 3.694600
						CHANNELS 3 Xrotation Yrotation Zrotation
						JOINT RHoodieString2
						{
							OFFSET 0.000000 -9.643799 2.679100
							CHANNELS 3 Xrotation Yrotation Zrotation
							End Site
							{
								OFFSET 0.000000 10.009018 0.000000
							}
						}
					}
				}
			}
			JOINT LBackpack_Strap
			{
				OFFSET 15.223200 -7.719803 -6.610900
				CHANNELS 3 Xrotation Yrotation Zrotation
				End Site
				{
					OFFSET 0.000000 16.040596 0.000000
				}
			}
			JOINT RBackpack_Strap
			{
				OFFSET -15.223000 -7.719803 -6.610900
				CHANNELS 3 Xrotation Yrotation Zrotation
				End Site
				{
					OFFSET 0.000000 16.040596 0.000000
				}
			}
		}
	}
	JOINT BoyFacialAnim_Joint
	{
		OFFSET 1.000000 -82.208099 -1.550900
		CHANNELS 3 Xrotation Yrotation Zrotation
		End Site
		{
			OFFSET 0.000000 30.012791 0.000000
		}
	}
}
MOTION
Frames: 5
Frame Time: 0.033333
-0.912187 50.448456 0.334995 -18.178021 -5.135804 -5.309009 0.000001 -0.000000 -0.000000 -76.035490 0.472593 12.051170 95.210433 9.530311 0.531420 -2.751823 3.440402 6.936708 -0.000000 0.000001 0.000000 -0.000000 0.000001 0.000000 0.000000 0.000000 -0.000001 -71.235717 -2.143859 -6.673148 43.253126 -0.342651 -0.103784 44.135183 4.505243 12.921331 -0.000001 -0.000000 0.000000 -0.000001 -0.000000 0.000000 0.000001 0.000001 0.000001 5.586589 0.980317 1.684315 10.106506 0.061653 2.477817 10.095404 0.096582 2.516579 -4.129010 0.673372 -0.600469 -11.836242 1.444437 4.368974 -0.000000 0.000000 -0.000000 -0.000000 0.000000 -0.000000 -0.000000 0.000000 -0.000000 1.243242 0.258729 -11.374846 -30.383168 -40.903469 -47.533359 0.000087 -80.986837 0.000087 -3.328814 -0.565276 27.718996 18.241642 -23.305369 -17.628921 53.671708 63.248446 -40.439453 0.000000 0.000003 -0.000000 6.090363 6.835817 -83.384732 5.535336 6.748921 -78.694550 -0.000006 0.000001 0.000000 6.088415 6.835609 -83.368538 5.537251 6.749296 -78.710752 -0.000001 0.000001 0.000000 6.090343 6.835796 -83.384725 5.535326 6.748933 -78.694544 -0.000001 0.000002 -0.000004 10.148462 7.303421 -83.373981 5.544906 2.664308 -78.811326 -0.000002 -0.000001 -0.000002 0.000002 0.000000 -0.000002 3.332430 13.460495 10.954811 -21.497834 29.018055 22.077938 0.000243 83.799256 -0.000259 -8.083098 5.017942 -28.653911 7.564635 7.028703 27.703739 -9.818493 -72.226641 -19.707247 -0.000001 0.000001 0.000000 6.036426 -6.888449 82.440964 4.121026 -6.349608 65.937847 -0.000004 0.000002 0.000002 6.036408 -6.888444 82.440957 4.121023 -6.349611 65.937847 -0.000003 0.000001 0.000003 6.036400 -6.888428 82.440971 4.121025 -6.349623 65.937847 -0.000000 0.000001 0.000001 6.036404 -6.888417 82.440964 4.121034 -6.349629 65.937840 -0.000000 -0.000002 -0.000002 -0.000000 -0.000001 -0.000000 -0.000000 -0.000000 -0.000000 -0.000000 -0.000000 -0.000000 -0.000000 -0.000000 -0.000000 -0.000000 -0.000000 -0.000000 -0.000000 -0.000000 -0.000001 -0.000001 0.000000 -0.000000 -0.000000 -0.000000 -0.000000 -0.000000 -0.000000 -0.000001 -0.000001 0.000000 -0.000000 -0.000000 -0.000000 -0.000000 -0.000000 -0.000000 -0.000000 0.000001 -0.000000 -0.000000 
-0.905354 50.448936 0.341475 -18.174507 -5.142710 -5.331941 0.000001 0.000000 0.000000 -76.047681 0.475966 12.086941 95.227276 9.530903 0.530837 -2.770648 3.417682 6.963274 0.000000 -0.000000 0.000000 0.000000 -0.000000 0.000000 -0.000000 0.000001 0.000000 -71.230786 -2.150568 -6.659807 43.248246 -0.363210 -0.104554 44.133209 4.506588 12.928985 -0.000001 -0.000001 -0.000001 -0.000001 -0.000001 -0.000001 -0.000001 0.000001 0.000001 5.574204 0.969477 1.690135 10.080560 0.032370 2.483719 10.069536 0.067098 2.522427 -4.203792 0.696181 -0.657302 -11.962597 1.507915 4.273354 -0.000001 0.000000 -0.000000 -0.000001 0.000000 -0.000000 -0.000001 0.000000 -0.000000 1.244926 0.267809 -11.391219 -29.574203 -40.213589 -47.174935 0.000318 -80.725746 0.000328 -4.247981 -1.003442 28.651899 18.241644 -23.305374 -17.628921 53.671715 63.248440 -40.439453 0.000000 0.000001 -0.000001 6.090367 6.835815 -83.384732 5.535334 6.748924 -78.694557 -0.000001 0.000000 -0.000002 6.088421 6.835607 -83.368538 5.537247 6.749294 -78.710752 0.000002 0.000001 0.000002 6.090343 6.835787 -83.384725 5.535326 6.748929 -78.694544 0.000004 0.000003 -0.000003 10.148464 7.303417 -83.373981 5.544908 2.664308 -78.811319 -0.000001 -0.000001 -0.000000 0.000001 -0.000000 0.000004 3.332606 13.458603 10.952824 -21.362083 29.665564 22.276022 -0.000123 83.960456 0.000140 -7.062885 4.749464 -28.101521 7.564633 7.028709 27.703737 -9.818508 -72.226635 -19.707240 0.000002 -0.000004 -0.000002 6.036422 -6.888447 82.440957 4.121017 -6.349614 65.937847 0.000001 0.000002 0.000002 6.036408 -6.888444 82.440957 4.121028 -6.349608 65.937840 0.000004 -0.000000 0.000003 6.036399 -6.888429 82.440978 4.121024 -6.349620 65.937847 0.000002 -0.000001 0.000000 6.036396 -6.888419 82.440964 4.121042 -6.349635 65.937840 -0.000003 0.000002 -0.000003 0.000000 -0.000003 -0.000002 0.000001 -0.000000 0.000000 0.000001 -0.000000 0.000000 0.000001 -0.000000 0.000000 0.000001 -0.000000 0.000000 0.000001 -0.000000 -0.000000 -0.000000 -0.000000 0.000000 0.000001 -0.000000 0.000000 0.000001 -0.000000 -0.000000 -0.000000 -0.000000 0.000000 -0.000000 -0.000000 0.000000 -0.000000 -0.000000 0.000000 0.000001 0.000000 0.000000 
-0.900655 50.453064 0.348110 -18.135300 -5.137979 -5.358526 -0.000000 0.000000 0.000000 -76.092221 0.468216 12.110641 95.234591 9.531753 0.530278 -2.781816 3.392017 6.988699 0.000000 -0.000000 -0.000000 0.000000 -0.000000 -0.000000 -0.000000 0.000000 0.000000 -71.251072 -2.151616 -6.648302 43.237696 -0.399664 -0.105681 44.128998 4.508422 12.942209 -0.000000 0.000000 -0.000001 -0.000000 0.000000 -0.000001 -0.000000 0.000000 0.000000 5.546283 0.958216 1.689632 10.030649 0.007141 2.473977 10.019970 0.041433 2.511724 -4.259491 0.733471 -0.702306 -12.170340 1.670955 4.122706 -0.000002 -0.000000 0.000000 -0.000002 -0.000000 0.000000 -0.000002 -0.000000 0.000000 1.243577 0.262663 -11.390311 -28.720631 -39.366290 -46.874530 0.000543 -80.538633 0.000535 -5.062957 -1.183425 29.067035 18.241646 -23.305377 -17.628920 53.671695 63.248446 -40.439450 -0.000001 -0.000001 0.000000 6.090373 6.835809 -83.384725 5.535334 6.748920 -78.694557 -0.000002 -0.000000 -0.000002 6.088418 6.835597 -83.368531 5.537246 6.749300 -78.710752 -0.000002 -0.000001 -0.000000 6.090349 6.835784 -83.384718 5.535328 6.748930 -78.694544 -0.000002 0.000001 -0.000004 10.148468 7.303412 -83.373981 5.544910 2.664304 -78.811319 -0.000001 -0.000003 -0.000001 0.000002 0.000002 0.000002 3.327549 13.470181 10.956296 -21.297802 30.265094 22.635814 -0.000368 84.106178 0.000339 -5.871180 4.715943 -27.054818 7.564633 7.028709 27.703732 -9.818507 -72.226641 -19.707251 0.000001 -0.000001 0.000000 6.036423 -6.888448 82.440957 4.121025 -6.349610 65.937840 -0.000001 0.000001 0.000000 6.036408 -6.888447 82.440950 4.121024 -6.349610 65.937847 0.000002 -0.000002 0.000001 6.036399 -6.888430 82.440971 4.121030 -6.349622 65.937847 -0.000003 -0.000000 -0.000001 6.036401 -6.888419 82.440957 4.121037 -6.349633 65.937840 -0.000001 0.000001 -0.000001 -0.000001 0.000001 0.000001 0.000000 -0.000000 0.000000 0.000000 -0.000000 0.000000 0.000000 -0.000000 0.000000 0.000000 -0.000000 0.000000 0.000000 -0.000000 -0.000000 -0.000001 -0.000000 0.000000 0.000000 -0.000000 0.000000 0.000000 -0.000000 -0.000000 -0.000001 -0.000000 0.000000 -0.000000 -0.000000 0.000000 -0.000000 -0.000000 0.000000 -0.000000 0.000000 0.000000 
-0.898548 50.461052 0.354757 -18.059898 -5.134638 -5.396395 0.000000 0.000000 -0.000000 -76.171431 0.451278 12.150044 95.237241 9.532869 0.529759 -2.796573 3.352834 7.019308 0.000000 0.000001 0.000000 0.000000 0.000001 0.000000 -0.000000 -0.000001 -0.000000 -71.293412 -2.151017 -6.618110 43.209617 -0.448937 -0.107131 44.124508 4.511673 12.958232 -0.000001 -0.000001 0.000000 -0.000001 -0.000001 0.000000 -0.000000 -0.000000 -0.000000 5.504369 0.956142 1.700604 9.955472 0.009283 2.470588 9.945152 0.042883 2.506772 -4.330140 0.765302 -0.743614 -12.232572 1.804826 4.011198 -0.000001 0.000000 -0.000000 -0.000001 0.000000 -0.000000 -0.000001 0.000000 -0.000000 1.242056 0.256008 -11.408865 -27.835377 -38.566117 -46.594318 -0.000034 -80.336726 -0.000020 -6.052714 -1.405439 29.517240 18.241644 -23.305367 -17.628921 53.671719 63.248446 -40.439450 -0.000001 -0.000001 -0.000000 6.090371 6.835820 -83.384725 5.535335 6.748924 -78.694557 -0.000001 -0.000001 -0.000006 6.088420 6.835608 -83.368538 5.537243 6.749295 -78.710752 0.000003 -0.000001 0.000002 6.090344 6.835791 -83.384725 5.535324 6.748930 -78.694544 0.000001 0.000003 -0.000003 10.148461 7.303417 -83.373981 5.544911 2.664313 -78.811319 -0.000000 0.000000 0.000003 -0.000001 -0.000003 0.000003 3.319778 13.462706 10.970487 -21.142304 30.858655 22.981034 -0.000136 84.351006 0.000104 -4.790714 4.430291 -26.419862 7.564638 7.028706 27.703736 -9.818510 -72.226635 -19.707242 -0.000001 0.000001 0.000002 6.036429 -6.888445 82.440964 4.121021 -6.349602 65.937847 -0.000001 -0.000001 0.000003 6.036413 -6.888445 82.440957 4.121026 -6.349614 65.937840 0.000000 -0.000001 0.000001 6.036406 -6.888429 82.440971 4.121027 -6.349623 65.937840 -0.000002 -0.000002 -0.000002 6.036407 -6.888422 82.440964 4.121039 -6.349633 65.937833 -0.000004 -0.000004 -0.000002 0.000000 -0.000005 0.000000 0.000000 0.000000 -0.000000 0.000000 0.000000 -0.000000 0.000000 0.000000 -0.000000 0.000000 0.000000 -0.000000 0.000000 0.000000 -0.000000 -0.000000 0.000000 0.000000 0.000000 0.000000 -0.000000 0.000000 0.000000 -0.000000 -0.000000 0.000000 0.000000 -0.000000 0.000000 0.000000 -0.000000 0.000000 0.000000 0.000000 0.000000 -0.000000 
-0.901513 50.468185 0.358030 -18.003520 -5.129357 -5.427577 -0.000001 0.000000 -0.000000 -76.233312 0.441108 12.199945 95.238013 9.533843 0.529231 -2.798985 3.302778 7.046750 0.000000 0.000001 -0.000000 0.000000 0.000001 -0.000000 0.000000 -0.000000 -0.000000 -71.320111 -2.141519 -6.583154 43.184148 -0.501513 -0.108665 44.122124 4.514295 12.965202 -0.000000 -0.000000 -0.000001 -0.000000 -0.000000 -0.000001 0.000002 -0.000000 0.000000 5.474289 0.958634 1.715671 9.906126 0.021464 2.483458 9.896048 0.054495 2.518217 -4.431817 0.797733 -0.810554 -12.265132 1.907917 3.902226 -0.000001 0.000000 -0.000000 -0.000001 0.000000 -0.000000 -0.000001 0.000000 -0.000000 1.247525 0.281282 -11.494840 -27.001751 -37.887814 -46.266639 -0.000214 -80.135229 -0.000184 -7.041278 -1.723395 29.946404 18.241646 -23.305376 -17.628921 53.671712 63.248440 -40.439443 -0.000000 -0.000000 -0.000000 6.090365 6.835817 -83.384732 5.535335 6.748924 -78.694550 0.000001 -0.000001 -0.000000 6.088417 6.835606 -83.368538 5.537249 6.749292 -78.710752 0.000001 -0.000004 -0.000002 6.090344 6.835790 -83.384718 5.535324 6.748931 -78.694544 -0.000002 -0.000001 -0.000002 10.148464 7.303417 -83.373981 5.544910 2.664308 -78.811326 0.000004 0.000001 0.000002 0.000002 -0.000001 -0.000002 3.312469 13.427956 10.991492 -21.016815 31.478132 23.238820 -0.000171 84.639807 0.000139 -3.751709 4.068720 -25.536371 7.564634 7.028701 27.703737 -9.818504 -72.226635 -19.707252 0.000000 -0.000001 0.000001 6.036426 -6.888451 82.440964 4.121024 -6.349611 65.937847 -0.000001 0.000000 0.000000 6.036408 -6.888450 82.440957 4.121023 -6.349610 65.937854 0.000005 -0.000001 0.000003 6.036400 -6.888428 82.440971 4.121028 -6.349622 65.937840 -0.000000 -0.000001 0.000000 6.036399 -6.888420 82.440964 4.121036 -6.349635 65.937840 0.000001 -0.000000 -0.000002 0.000000 0.000000 -0.000002 0.000000 -0.000000 0.000000 0.000000 -0.000000 0.000000 0.000000 -0.000000 0.000000 0.000000 -0.000000 0.000000 0.000000 -0.000000 -0.000000 0.000000 0.000000 -0.000000 0.000000 -0.000000 0.000000 0.000000 -0.000000 -0.000000 0.000000 0.000000 -0.000000 -0.000000 -0.000000 -0.000000 -0.000000 -0.000000 -0.000000 -0.000001 0.000000 -0.000000 
